<svg width="193" height="77" viewBox="0 0 193 77" fill="none" xmlns="http://www.w3.org/2000/svg">
<path d="M20.7888 54.0171V29.3421H37.2038V32.9121H25.0938V39.7021H36.4338V43.2721H25.0938V50.4471H37.2038V54.0171H20.7888ZM42.3025 54.0171V36.9021H46.5725V39.5621C47.1559 38.5821 47.9375 37.8354 48.9175 37.3221C49.9209 36.8088 51.0409 36.5521 52.2775 36.5521C56.3142 36.5521 58.3325 38.8971 58.3325 43.5871V54.0171H53.9575V43.7971C53.9575 42.4671 53.7009 41.4988 53.1875 40.8921C52.6975 40.2854 51.9275 39.9821 50.8775 39.9821C49.5942 39.9821 48.5675 40.3904 47.7975 41.2071C47.0509 42.0004 46.6775 43.0621 46.6775 44.3921V54.0171H42.3025ZM70.0912 54.3671C68.6445 54.3671 67.2912 54.1921 66.0312 53.8421C64.7712 53.4921 63.7212 52.9904 62.8812 52.3371L64.0012 49.4671C64.8645 50.0504 65.8328 50.5054 66.9062 50.8321C67.9795 51.1354 69.0528 51.2871 70.1262 51.2871C71.2462 51.2871 72.0745 51.1004 72.6112 50.7271C73.1712 50.3304 73.4512 49.8171 73.4512 49.1871C73.4512 48.2071 72.7278 47.5771 71.2812 47.2971L67.7812 46.6321C64.8178 46.0721 63.3362 44.5321 63.3362 42.0121C63.3362 40.8921 63.6395 39.9238 64.2462 39.1071C64.8762 38.2904 65.7395 37.6604 66.8362 37.2171C67.9328 36.7738 69.1928 36.5521 70.6162 36.5521C71.8295 36.5521 72.9962 36.7271 74.1162 37.0771C75.2362 37.4038 76.1928 37.9054 76.9862 38.5821L75.7962 41.4521C75.1195 40.8921 74.3028 40.4488 73.3462 40.1221C72.4128 39.7954 71.5145 39.6321 70.6512 39.6321C69.5078 39.6321 68.6562 39.8304 68.0962 40.2271C67.5595 40.6238 67.2912 41.1488 67.2912 41.8021C67.2912 42.8288 67.9562 43.4588 69.2862 43.6921L72.7862 44.3571C74.3028 44.6371 75.4462 45.1504 76.2162 45.8971C77.0095 46.6438 77.4062 47.6471 77.4062 48.9071C77.4062 50.6104 76.7412 51.9521 75.4112 52.9321C74.0812 53.8888 72.3078 54.3671 70.0912 54.3671ZM81.686 33.2271V28.9571H86.586V33.2271H81.686ZM81.966 54.0171V36.9021H86.341V54.0171H81.966ZM91.9369 54.0171V36.9021H96.2069V39.5621C96.7902 38.5821 97.5719 37.8354 98.5519 37.3221C99.5552 36.8088 100.675 36.5521 101.912 36.5521C105.949 36.5521 107.967 38.8971 107.967 43.5871V54.0171H103.592V43.7971C103.592 42.4671 103.335 41.4988 102.822 40.8921C102.332 40.2854 101.562 39.9821 100.512 39.9821C99.2286 39.9821 98.2019 40.3904 97.4319 41.2071C96.6852 42.0004 96.3119 43.0621 96.3119 44.3921V54.0171H91.9369ZM119.096 54.3671C117.859 54.3671 116.751 54.1338 115.771 53.6671C114.814 53.1771 114.056 52.5238 113.496 51.7071C112.959 50.8904 112.691 49.9688 112.691 48.9421C112.691 47.6821 113.017 46.6904 113.671 45.9671C114.324 45.2204 115.386 44.6838 116.856 44.3571C118.326 44.0304 120.297 43.8671 122.771 43.8671H123.996V43.1321C123.996 41.9654 123.739 41.1254 123.226 40.6121C122.712 40.0988 121.849 39.8421 120.636 39.8421C119.679 39.8421 118.699 39.9938 117.696 40.2971C116.692 40.5771 115.677 41.0204 114.651 41.6271L113.391 38.6521C113.997 38.2321 114.709 37.8704 115.526 37.5671C116.366 37.2404 117.241 36.9954 118.151 36.8321C119.084 36.6454 119.959 36.5521 120.776 36.5521C123.272 36.5521 125.127 37.1354 126.341 38.3021C127.554 39.4454 128.161 41.2304 128.161 43.6571V54.0171H124.066V51.2871C123.669 52.2438 123.039 53.0021 122.176 53.5621C121.312 54.0988 120.286 54.3671 119.096 54.3671ZM120.006 51.3571C121.149 51.3571 122.094 50.9604 122.841 50.1671C123.611 49.3738 123.996 48.3704 123.996 47.1571V46.3871H122.806C120.612 46.3871 119.084 46.5621 118.221 46.9121C117.381 47.2388 116.961 47.8454 116.961 48.7321C116.961 49.5021 117.229 50.1321 117.766 50.6221C118.302 51.1121 119.049 51.3571 120.006 51.3571ZM133.266 54.0171V49.1521H138.166V54.0171H133.266ZM143.453 54.0171V36.9021H147.723V39.5271C148.236 38.5938 148.948 37.8704 149.858 37.3571C150.768 36.8204 151.818 36.5521 153.008 36.5521C155.574 36.5521 157.254 37.6721 158.048 39.9121C158.584 38.8621 159.354 38.0454 160.358 37.4621C161.361 36.8554 162.504 36.5521 163.788 36.5521C167.638 36.5521 169.563 38.8971 169.563 43.5871V54.0171H165.188V43.7621C165.188 42.4554 164.966 41.4988 164.523 40.8921C164.103 40.2854 163.379 39.9821 162.353 39.9821C161.209 39.9821 160.311 40.3904 159.658 41.2071C159.004 42.0004 158.678 43.1088 158.678 44.5321V54.0171H154.303V43.7621C154.303 42.4554 154.081 41.4988 153.638 40.8921C153.218 40.2854 152.506 39.9821 151.503 39.9821C150.359 39.9821 149.461 40.3904 148.808 41.2071C148.154 42.0004 147.828 43.1088 147.828 44.5321V54.0171H143.453ZM183.561 54.3671C181.624 54.3671 179.956 54.0054 178.556 53.2821C177.156 52.5588 176.071 51.5321 175.301 50.2021C174.554 48.8721 174.181 47.2971 174.181 45.4771C174.181 43.7038 174.543 42.1521 175.266 40.8221C176.013 39.4921 177.028 38.4538 178.311 37.7071C179.618 36.9371 181.099 36.5521 182.756 36.5521C185.183 36.5521 187.096 37.3221 188.496 38.8621C189.919 40.4021 190.631 42.5021 190.631 45.1621V46.4571H178.381C178.708 49.5138 180.458 51.0421 183.631 51.0421C184.588 51.0421 185.544 50.9021 186.501 50.6221C187.458 50.3188 188.333 49.8521 189.126 49.2221L190.351 52.1621C189.534 52.8388 188.508 53.3754 187.271 53.7721C186.035 54.1688 184.798 54.3671 183.561 54.3671ZM182.931 39.5271C181.648 39.5271 180.609 39.9238 179.816 40.7171C179.023 41.5104 178.544 42.5838 178.381 43.9371H186.991C186.898 42.5138 186.501 41.4288 185.801 40.6821C185.124 39.9121 184.168 39.5271 182.931 39.5271Z" fill="black"/>
<path d="M27.6157 7.22628L14.0671 11.1135C13.3288 11.3253 12.6649 11.8726 12.1731 12.675L3.14006 27.4064C2.37772 28.6494 3.19791 30.6189 4.34123 30.2907L6.70325 29.6129C6.61888 30.8035 6.77728 32.0404 7.21521 33.1769C6.97085 33.8475 6.95884 34.7039 7.27211 35.4561C7.55613 36.1381 8.02501 36.5224 8.50892 36.6163L10.5023 44.7364C10.6757 45.4425 11.2331 45.7887 11.6471 45.4472L13.9183 43.5747C14.3328 43.2329 14.3906 42.3795 14.0376 41.8216L9.97743 35.4056C10.1557 34.7656 10.1467 34.0022 9.86263 33.3202C9.55779 32.5882 9.04087 32.1917 8.52081 32.1429C8.15584 31.1673 8.11681 30.0708 8.39081 29.1293L17.8901 26.4041C18.3301 26.2777 19.125 25.9172 19.784 24.8426L28.8171 10.1112C29.5796 8.86725 28.7596 6.89839 27.6157 7.22628ZM20.9705 26.4642C20.0464 27.9706 18.9349 28.4757 18.3156 28.6532L11.2718 30.6744L13.6872 38.3259C14.6186 40.5623 18.8529 39.5062 23.145 35.9673C27.4372 32.4284 30.1618 27.747 29.2304 25.5106L25.6668 18.805L20.9705 26.4642Z" fill="black"/>
</svg>
